<svg width="31" height="30" viewBox="0 0 31 30" fill="none" xmlns="http://www.w3.org/2000/svg">
<path d="M30.8074 10.2929C30.7184 10.7817 30.6527 11.2762 30.5373 11.7587C30.1502 13.3665 29.3728 14.7682 28.2571 15.984C24.039 20.5804 19.8201 25.1768 15.6012 29.7732C15.5612 29.8173 15.5243 29.8654 15.4121 30C15.3456 29.8854 15.3103 29.7868 15.2446 29.7155C11.0481 25.1399 6.84768 20.5676 2.65043 15.992C-1.55725 11.4053 -0.411159 4.16007 5.00352 1.1626C7.15544 -0.0283732 9.45564 -0.227937 11.8352 0.242521C13.0414 0.480555 14.1706 0.928572 15.2238 1.56173C15.3961 1.66512 15.5123 1.65951 15.6806 1.55932C17.7027 0.361137 19.8995 -0.195077 22.2285 0.0613904C26.2695 0.5054 28.9496 2.74228 30.3089 6.55083C30.5413 7.20161 30.6086 7.91091 30.7529 8.59375C30.7673 8.66108 30.7881 8.7268 30.8058 8.79332V10.2929H30.8074ZM15.376 3.82105C15.1877 3.69041 14.9529 3.5205 14.7108 3.36101C12.74 2.06905 10.5761 1.53848 8.25425 1.92078C3.84701 2.64771 1.01384 7.09021 2.12948 11.4269C2.18157 11.6289 2.26011 11.7146 2.48853 11.713C4.07783 11.7018 5.66793 11.7034 7.25723 11.7114C7.464 11.7122 7.60907 11.6489 7.75494 11.5031C9.24886 9.99952 10.7492 8.50319 12.2487 7.00446C12.3233 6.92992 12.401 6.86019 12.49 6.77684C14.4768 8.76607 16.4396 10.7313 18.412 12.7061C18.4977 12.6243 18.5707 12.5578 18.6404 12.4881C19.4042 11.7251 20.1616 10.9557 20.9366 10.2039C21.0488 10.0949 21.2427 10.0139 21.399 10.0131C23.8082 10.0011 26.2174 10.0051 28.6274 10.0051C28.7428 10.0051 28.8582 10.0051 29.0209 10.0051C28.9977 9.5507 29.0025 9.14115 28.952 8.73802C28.633 6.15891 27.4204 4.11759 25.1531 2.81441C22.7839 1.45273 20.2938 1.52406 17.8181 2.51386C16.983 2.84807 16.2208 3.36261 15.3752 3.82185L15.376 3.82105ZM6.11515 17.1053C9.2689 20.5403 12.3537 23.9009 15.4506 27.2734C19.086 23.3134 22.6894 19.387 26.3464 15.403C25.4296 15.403 24.6033 15.4142 23.777 15.3966C23.486 15.3902 23.2777 15.4719 23.0701 15.6819C21.609 17.1606 20.1343 18.6265 18.6668 20.0987C18.5899 20.1757 18.541 20.2807 18.4609 20.4001C16.4268 18.3636 14.4576 16.3928 12.4699 14.4027C11.6308 15.2459 10.8037 16.0714 9.9854 16.9057C9.84034 17.054 9.69127 17.1117 9.48609 17.1093C8.50671 17.1005 7.52732 17.1053 6.54793 17.1053H6.11434H6.11515ZM3.02391 13.5059C3.11928 13.6598 3.17138 13.7664 3.24431 13.8562C3.59134 14.2817 3.93437 14.7113 4.30224 15.1185C4.39361 15.2202 4.56993 15.2964 4.70778 15.298C6.06706 15.3108 7.42714 15.3116 8.78642 15.298C8.93389 15.2964 9.11421 15.213 9.22161 15.108C10.2347 14.1134 11.2357 13.1068 12.2367 12.0993C12.3128 12.0224 12.3593 11.9166 12.4355 11.8012C14.4752 13.8409 16.4452 15.8109 18.4545 17.821C18.5314 17.7224 18.5915 17.6278 18.6692 17.5501C19.9115 16.3038 21.1594 15.0632 22.3968 13.8121C22.5515 13.6558 22.7046 13.5981 22.921 13.5989C24.471 13.6069 26.0203 13.6045 27.5703 13.5997C27.6705 13.5997 27.8211 13.5837 27.8628 13.5195C28.201 12.993 28.4719 12.4336 28.6386 11.814C28.5673 11.8084 28.528 11.8036 28.488 11.8036C26.3481 11.8036 24.2089 11.7996 22.069 11.8108C21.9408 11.8108 21.7861 11.8974 21.69 11.992C20.6721 12.9962 19.6639 14.01 18.6524 15.0207C18.5779 15.0952 18.5001 15.1657 18.4112 15.2499C16.4243 13.2623 14.4608 11.2971 12.4387 9.27419C12.3649 9.37919 12.3137 9.48097 12.2375 9.55791C10.996 10.805 9.74817 12.0456 8.50991 13.2959C8.35523 13.4522 8.20135 13.5123 7.98496 13.5107C6.45496 13.5027 4.92578 13.5067 3.39578 13.5067C3.29079 13.5067 3.1858 13.5067 3.02391 13.5067V13.5059Z" fill="white"/>
</svg>
