<svg width="31" height="30" viewBox="0 0 31 30" fill="none" xmlns="http://www.w3.org/2000/svg">
<path d="M0.101562 26.4261C0.264296 26.2118 0.406688 25.9771 0.594457 25.7869C1.63657 24.7307 2.68651 23.6824 3.74271 22.6402C3.89371 22.4916 3.93283 22.3781 3.86085 22.1669C3.52678 21.1803 3.70438 20.2798 4.40069 19.4998C4.61349 19.2612 4.86698 19.0586 5.13299 18.8098C4.89358 18.5813 4.69251 18.3998 4.50318 18.2066C3.43055 17.112 3.41412 15.5136 4.49457 14.4308C9.03076 9.88448 13.5716 5.34282 18.1196 0.807417C19.2047 -0.274601 20.8101 -0.265995 21.8961 0.814458C24.366 3.27188 26.8305 5.73557 29.2887 8.20629C30.3996 9.32274 30.3644 10.9203 29.2175 12.0681C25.1194 16.1693 21.0182 20.2673 16.9178 24.3669C16.5173 24.7675 16.1198 25.1704 15.7161 25.5671C14.5746 26.6906 12.988 26.6851 11.8535 25.5577C11.6806 25.3856 11.5101 25.2119 11.2613 24.9615C11.0954 25.1603 10.9483 25.3645 10.7731 25.5405C9.943 26.3761 8.96504 26.6131 7.85251 26.211C7.68117 26.1492 7.60449 26.2212 7.50513 26.3213C6.44346 27.3853 5.38413 28.4517 4.31385 29.5079C4.12373 29.6949 3.88902 29.8373 3.67465 30H3.26469C3.05736 29.8459 2.82969 29.7129 2.64661 29.5345C1.94404 28.8507 1.25087 28.1575 0.567074 27.455C0.388693 27.2719 0.255689 27.0442 0.101562 26.8369C0.101562 26.7 0.101562 26.5638 0.101562 26.4269V26.4261ZM13.7923 24.7268C14.0364 24.5829 14.2953 24.4937 14.4698 24.32C18.9911 19.8135 23.5046 15.2985 28.0181 10.7834C28.4492 10.3523 28.45 9.8524 28.0173 9.41897C25.5755 6.97328 23.1322 4.52993 20.6865 2.08894C20.2507 1.65394 19.7531 1.65551 19.3221 2.08659C14.8062 6.5993 10.2919 11.1136 5.77844 15.6286C5.34814 16.0589 5.34736 16.5628 5.77219 16.9947C6.14225 17.3702 6.52013 17.7379 6.88863 18.1142C7.32206 18.5571 7.32362 19.0406 6.8941 19.4818C6.52639 19.8589 6.1485 20.2266 5.77766 20.6014C5.35048 21.0333 5.34657 21.5348 5.77531 21.9658C6.55925 22.7553 7.34631 23.5423 8.13651 24.3263C8.56759 24.755 9.06988 24.7534 9.50253 24.3278C9.87807 23.9578 10.2458 23.5799 10.6229 23.2114C11.0649 22.7787 11.5469 22.7795 11.9897 23.2129C12.373 23.5885 12.7376 23.9851 13.1351 24.3442C13.3064 24.4992 13.5411 24.5844 13.7938 24.7276L13.7923 24.7268ZM3.42977 27.7953C4.37643 26.8533 5.32545 25.909 6.25412 24.9858C5.87937 24.6095 5.48114 24.2112 5.10561 23.8341C4.17145 24.7691 3.224 25.7157 2.28672 26.6538C2.66461 27.0309 3.06283 27.4291 3.42977 27.7945V27.7953Z" fill="white"/>
<path d="M19.9983 6.65881C20.2408 6.79338 20.4833 6.87005 20.6469 7.02887C21.4676 7.8222 22.2718 8.63352 23.0738 9.4464C23.4759 9.85401 23.4689 10.3586 23.0589 10.7694C20.6109 13.2213 18.1605 15.6717 15.7077 18.119C15.2853 18.5407 14.7869 18.543 14.3636 18.1252C13.5648 17.3366 12.7715 16.5425 11.9821 15.7445C11.5612 15.3189 11.5588 14.8213 11.9782 14.4012C14.4333 11.9422 16.8891 9.48395 19.3544 7.03513C19.5155 6.87475 19.7581 6.79573 19.9983 6.65881ZM19.9881 8.91282C18.766 10.1333 17.5393 11.3601 16.3501 12.5485C16.7506 12.9483 17.1598 13.3559 17.5534 13.7494C18.7543 12.5524 19.9818 11.328 21.1937 10.1192C20.7955 9.72101 20.3902 9.31574 19.9873 8.91282H19.9881ZM13.8527 15.0427C14.2564 15.4534 14.6555 15.8603 15.024 16.235C15.4151 15.8454 15.8181 15.4448 16.1928 15.0716C15.8071 14.6867 15.4034 14.283 15.0083 13.8879C14.6304 14.265 14.2322 14.6632 13.8527 15.0427Z" fill="white"/>
<path d="M10.939 19.1634C11.4671 19.1634 11.9624 19.1619 12.4568 19.1634C13.0264 19.1658 13.416 19.521 13.4184 20.0365C13.4207 20.5513 13.0303 20.9167 12.4639 20.9191C11.694 20.9222 10.9242 20.9222 10.1543 20.9191C9.54799 20.9167 9.18497 20.5592 9.18262 19.9614C9.17871 19.1822 9.17871 18.4022 9.18262 17.6229C9.18497 17.0753 9.54642 16.6888 10.0495 16.6833C10.5674 16.677 10.9343 17.0651 10.9383 17.63C10.9414 18.126 10.9383 18.6228 10.9383 19.1634H10.939Z" fill="white"/>
</svg>
