<svg width="27" height="30" viewBox="0 0 27 30" fill="none" xmlns="http://www.w3.org/2000/svg">
<path d="M3.85658 0H26.5901V29.9882C26.5072 29.9936 26.4594 29.9983 26.4125 29.9983C19.0225 29.9983 11.6317 30.0046 4.24169 29.9929C2.3756 29.9897 0.81557 28.4086 0.813222 26.5346C0.805395 18.8417 0.805397 11.1488 0.815573 3.45587C0.817138 2.33574 1.31262 1.42931 2.18774 0.729529C2.67931 0.335803 3.26168 0.155768 3.85579 0H3.85658ZM3.15366 23.1523C4.26048 22.8392 5.36808 22.977 6.46472 22.9747C12.2649 22.9614 18.0652 22.9684 23.8646 22.9684H24.2223V2.34435H23.8771C17.4225 2.34435 10.9687 2.34435 4.51409 2.34435C3.6014 2.34435 3.15288 2.79444 3.15288 3.71261C3.15288 10.0788 3.15288 16.4457 3.15288 22.8118V23.1531L3.15366 23.1523ZM24.2325 25.312C24.1041 25.312 23.9898 25.312 23.8748 25.312C17.4296 25.312 10.9851 25.312 4.53992 25.312C4.44208 25.312 4.34423 25.3088 4.24717 25.3151C3.77752 25.3464 3.36736 25.6619 3.21707 26.1049C2.94702 26.8971 3.52704 27.6548 4.41311 27.6548C10.9358 27.6563 17.4593 27.6555 23.982 27.6548C24.0658 27.6548 24.1495 27.6438 24.2325 27.6383V25.3112V25.312Z" fill="white"/>
<path d="M17.2151 9.65447C16.6969 10.1773 16.2195 10.6595 15.7584 11.1245C15.1862 10.5507 14.6438 10.0067 14.1201 9.48226C15.5299 8.07252 16.9623 6.64007 18.365 5.23816C19.7708 6.64399 21.2095 8.08269 22.6248 9.49792C22.1355 9.98792 21.5939 10.5312 21.053 11.0736C20.6068 10.622 20.1293 10.139 19.6519 9.65525C19.6268 9.66777 19.601 9.67951 19.5759 9.69204C19.5704 9.77031 19.5595 9.84859 19.5595 9.92686C19.5579 10.8153 19.5642 11.7029 19.554 12.5914C19.5517 12.7839 19.6041 12.8747 19.7888 12.9561C21.3277 13.6324 22.1809 15.2919 21.8287 16.891C21.4632 18.5505 20.0151 19.705 18.3243 19.6855C16.7071 19.6667 15.2872 18.4902 14.942 16.884C14.6 15.2911 15.4524 13.6262 16.9639 12.9647C17.1541 12.8818 17.2222 12.7925 17.2198 12.5851C17.2081 11.6294 17.2143 10.6728 17.2143 9.65447H17.2151ZM19.5579 16.1756C19.5603 15.5314 19.035 15.0023 18.3916 14.9999C17.7474 14.9976 17.2183 15.5228 17.2159 16.1662C17.2136 16.8104 17.7388 17.3396 18.3822 17.3419C19.0249 17.3443 19.5556 16.8175 19.5579 16.1748V16.1756Z" fill="white"/>
<path d="M7.84014 15.0117C7.84014 14.1718 7.84484 13.3734 7.83153 12.5758C7.82996 12.5061 7.71803 12.4114 7.63584 12.3746C6.27071 11.7601 5.45978 10.4858 5.49891 9.00248C5.5451 7.25771 6.99867 5.75169 8.75205 5.63271C10.5461 5.51061 12.1774 6.77554 12.4701 8.51482C12.7449 10.15 11.9261 11.6858 10.4076 12.3597C10.2416 12.4333 10.1767 12.5124 10.1798 12.6994C10.1923 13.4509 10.1845 14.2023 10.1845 14.9851H12.5077V17.3318H10.1994V19.6667H7.85266V17.3584H5.5177V15.0109H7.84092L7.84014 15.0117ZM10.1837 9.14572C10.1861 8.50151 9.66083 7.97237 9.0174 7.97002C8.37319 7.96767 7.84405 8.49212 7.84171 9.13633C7.83936 9.78054 8.36458 10.3097 9.00801 10.312C9.65065 10.3144 10.1814 9.78758 10.1837 9.14494V9.14572Z" fill="white"/>
</svg>
