<svg width="23" height="22" viewBox="0 0 23 22" fill="none" xmlns="http://www.w3.org/2000/svg">
<path d="M9.54154 16.06L17.2965 8.305L15.7565 6.765L9.54154 12.98L6.40654 9.845L4.86654 11.385L9.54154 16.06ZM11.0815 22C9.55988 22 8.12988 21.7113 6.79154 21.1338C5.45321 20.5563 4.28904 19.7725 3.29904 18.7825C2.30904 17.7925 1.52529 16.6283 0.947793 15.29C0.370293 13.9517 0.081543 12.5217 0.081543 11C0.081543 9.47833 0.370293 8.04833 0.947793 6.71C1.52529 5.37167 2.30904 4.2075 3.29904 3.2175C4.28904 2.2275 5.45321 1.44375 6.79154 0.86625C8.12988 0.28875 9.55988 0 11.0815 0C12.6032 0 14.0332 0.28875 15.3715 0.86625C16.7099 1.44375 17.874 2.2275 18.864 3.2175C19.854 4.2075 20.6378 5.37167 21.2153 6.71C21.7928 8.04833 22.0815 9.47833 22.0815 11C22.0815 12.5217 21.7928 13.9517 21.2153 15.29C20.6378 16.6283 19.854 17.7925 18.864 18.7825C17.874 19.7725 16.7099 20.5563 15.3715 21.1338C14.0332 21.7113 12.6032 22 11.0815 22ZM11.0815 19.8C13.5382 19.8 15.619 18.9475 17.324 17.2425C19.029 15.5375 19.8815 13.4567 19.8815 11C19.8815 8.54333 19.029 6.4625 17.324 4.7575C15.619 3.0525 13.5382 2.2 11.0815 2.2C8.62488 2.2 6.54404 3.0525 4.83904 4.7575C3.13404 6.4625 2.28154 8.54333 2.28154 11C2.28154 13.4567 3.13404 15.5375 4.83904 17.2425C6.54404 18.9475 8.62488 19.8 11.0815 19.8Z" fill="#ED1C24"/>
</svg>
